<?xml version="1.0" encoding="UTF-8"?>
<svg xmlns="http://www.w3.org/2000/svg" version="1.1" viewBox="0 0 233.9 582.7">
  <defs>
    <style>
      .cls-1{
        fill: none;
      }

      .cls-2 {
        stroke-width: 0px;
        fill: #ddd;
        stroke-miterlimit: 10;
      }

      .cls-3 {
        stroke: #ddd;
        fill: none;
      }
    </style>
  </defs>
  <g id="base">
    <g>
      <path class="cls-2" d="M222.3,302.2c-.7-7-.8-14.1-1.4-21.2-1-10.1-1.5-20.2-2.3-30.3-.7-8.6-1.4-17.3-2.9-25.8-2.4-13.5-6.5-26.6-10-39.9-2.6-9.8-4.7-19.7-5.6-29.8-.9-9.9-1.3-19.8-3.2-29.5-1.8-9.2-6.6-15.3-15.6-18.1-3.8-1.2-7.6-2.7-11.3-4-9-3.3-16.6-9.1-24.9-13.8-2.8-1.6-6.1-3.7-5.9-7.3.3-5.3,1.2-10.7,2.9-15.8.5-1.3,1.4-1.9,2.6-2.5,3.4-1.7,6-7.2,4.1-10-2.6-3.7-.8-7.2-.6-10.7.7-9.3-2.9-16.1-9.4-22.9s-19.1-5-20-4.9c0,0-.6,298.7,0,298.4,1.4-.8,4-.8,4.6.9.9,2.7.9,5.6,1.5,8.4,2.1,10.2,1.4,20.6,2.9,30.9,1,6.4,1.1,12.8,2.3,19.2,2.1,11.6,4,23.3,6.5,34.8,1.1,4.9,2.1,9.9,2.9,14.9,1.8,11.1,1,22.2,1.2,33.3.2,7.2.6,14.4,2.5,21.3,2.7,10.3,3.4,20.6,1.2,31-3.4,15.9-4.8,31.9-4.9,48.1,0,4.7,2.6,7.7,7.2,8.5,5.6.9,11.3,1.2,17,.7,5.5-.5,7.6-3.4,6.4-8.8-1-4.4-3.3-8.2-4.7-12.4-4.5-13.5-4.4-27.3-1.4-41,2.7-12.4,6.5-24.5,9.3-36.8,2.5-11,3-22.1,1.1-33.3-1.5-8.9-2.5-17.9-2.9-27-.3-6.8.4-13.5.4-20.2,0-3.5.2-7,.6-10.4,1.3-10.7,1.6-21.5,2.4-32.2.7-9.6-.4-19.3-.7-28.9-.2-5.5-.8-10.9-1.3-16.4-.8-8-2.1-15.9-3-23.8-1.1-9.3-2.8-18.5-3.5-28-.5-8-.6-15.9.6-23.7,1.7-11.4,2.7-22.8,4.1-34.2.9-7.2,2.6-14.4,3-21.7,1.2,7.4,3.9,14.4,4.5,22,.6,6.9,3.3,13.5,4.8,20.3,1.9,8.9,2.8,17.9,4.8,26.8,3,12.6,7.6,24.6,13,36.3,3.8,8.2,5.7,16.6,1.6,25.4-.8,1.7-1,3.6-1,5.6,0,6.5,0,12.9,0,19.4,0,1.2,0,2.3.5,3.4.6,1,1.1,1.6,1.8,1.6s1.1-.4,1.7-1.3c.5-.7.8-1.5.9-2.3.6-2.9,1.3-5.8,2-8.6.3-1,.7-2.2,2-2.1,1.3,0,1.6,1.2,1.8,2.3.8,6.3-2.2,12.8-7.5,14.7-.7.2-1.4.4-2.1.5-1.2.1-3.1.4-2.8,2.4.2,1.9,1.9,1.6,3.3,1.6,9.7.3,19.7-9.4,19.8-19.4,0-4.4-.1-8.9-.6-13.3ZM122.4,296.8c-.1,3.6-.5,7.1-.7,10.7-1.9-10.6-1.6-21.3,0-32.1.3,3.4.7,6.8.8,10.3.1,3.7.1,7.4,0,11.1ZM122.1,220.3c-1.7-21.6-1.6-43.2,0-64.8,1.4,21.6,1.2,43.2,0,64.8ZM124.3,313.6q14.9.8,25.8-4c-7.3,8.2-20.1,8.8-25.8,4ZM144.9,164.7c-2.6-5.3-2.6-10.9-2.4-16.5.1-5,.8-9.9,2-14.7.3-1,.6-1.9.9-2.8-1.3,5.1-1.1,10.4-1,15.4,0,5.2-.6,10.6,1.5,15.6,2.5,6.2,6.7,10.3,14.2,5.9-3.9,5.2-11.9,3.7-15.2-2.9Z"/>
      <g>
        <path class="cls-3" d="M116.6,310.5V15.6c-2.2,0-4.4.2-6.6.5-8.6,1-14.7,5.9-18.1,14-1.6,3.8-2.1,7.6-1.9,11.5,0,1,.2,2,.3,3,.1.8.2,1.5.4,2.2.4,1.7.7,3.4-.2,4.9-2.4,4-1.6,9.6,2.3,11.9,2.5,1.5,3.5,3.4,4.2,5.9.6,2.1,1.2,4.3,1.7,6.4,1.6,6.5,0,10.3-5.7,13.6-12.8,7.4-25.5,14.9-39.8,19.4-5.2,1.7-8.9,5.5-10.5,11.1-2.9,9.9-3.8,20.1-4.5,30.3-.6,9.8-2.2,19.3-4.4,28.7-3.9,16.5-9.4,32.6-12,49.5-1.8,11.8-2.2,23.7-3.3,35.6-.7,7.2-.9,14.5-1.4,21.8-.7,9.5-2,18.9-1.9,28.4.1,9.8,8.3,19,18.1,20.1,1.8.2,4.5,1.5,5-1.3.5-2.7-2.3-2.4-4-2.9-1.5-.5-3-1.3-4.2-2.5-.2-.2-.3-.3-.5-.5-3.1-3.2-4.8-8-3.6-12.1.2-.9.6-2,1.7-2.1,1.3-.2,1.8.9,2.3,1.8.3.7.5,1.4.6,2.1.4,2.6.8,5.2,1.2,7.8,0,.5.2,1,.5,1.4.1.2.3.5.6.6.3.2.7.3,1.1.3,1.5-.1,2.6-1.3,2.6-2.8,0-8.1.6-16.1-.2-24.1-.4-3.9-2.5-7.4-2.8-11.3-.5-6.2,1.6-11.9,4.1-17.4,5.3-11.6,10-23.3,12.7-35.8,2.1-9.7,3.6-19.5,5.6-29.2,1.3-6.3,3.6-12.4,4.3-18.8.7-7.1,2.8-13.9,4.5-20.8,0,5.5,1.7,10.8,2.1,16.2.7,8.2,2,16.3,2.8,24.5,1.3,13.2,3.7,26.2,2.5,39.7-.9,9.8-2.5,19.5-3.7,29.2-1.3,11-2.7,22-3.6,33-.4,4.9,0,9.8-.7,14.6-1.3,11.2-.3,22.4.3,33.6.5,9.7,1.8,19.3,2.3,29,.4,7.5,1,14.9.2,22.5-.7,7.1-1.1,14.3-2.5,21.4-1.9,10-1.9,19.9-.4,29.9,1.2,8.1,3.5,15.9,5.6,23.7,3.8,14.1,7.9,28.2,6.8,43.2-.6,7.6-1.9,14.8-5.3,21.7-1.2,2.6-2.7,5-3.5,7.8-1.5,5.2.1,7.7,5.5,8.8,6,1.2,12.1.7,18.1.6,2.9,0,5.4-1.4,6.7-4.5,1.6-3.9,2.1-8,1.7-12.1-.5-4.9-1.7-9.8-1.7-14.8,0-9-2.3-17.6-3.7-26.3-1-6.8-2.6-13.6-1-20.4,3-13.2,5-26.6,4.6-40.2-.4-11.7.6-23.2,3-34.6,3.1-14.4,5.7-29,7.8-43.6,1.4-9.7,2.5-19.5,3-29.2.3-5.6,1-11.2,1.6-16.7.3-2.9,0-6,1.5-8.7.4-.6.5-1.4,1.4-1.5.2,0,.3,0,.4,0v-3.1"/>
        <path class="cls-3" d="M115.1,312.3c-1.6,0-1.6-.2-2.5-1.3-3.7-4.6-5.9-10-7.1-15.8,2,3.3,3.4,7,5.7,10.2,2.2,3,3.3,5.3,4,6.9Z"/>
        <path class="cls-3" d="M77.5,171c13.3,4.5,12.6,3.2,22.2,1.7-6.4,5-16,4.4-22.2-1.7Z"/>
        <path class="cls-3" d="M100.7,105.3c-4.2,1-8.5.6-12.8,1.3,6.1-2.5,12.3-4.1,18.9-3.7,2.5.1,4.7.9,5.9,4-3.9-3.6-8.1-2.4-12-1.5Z"/>
      </g>
    </g>
  </g>
  <g id="zones">
    <path id="Shoulder" class="cls-1" d="M166.7,168.3c-8.4,16.2-41.6,9.1-45.8-11.9s.2-50,15.9-57.4,33.5,7.8,36.9,11,16.2,13.5-7,58.2Z"/>
    <path id="Lower Back" data-name="Lower Back" class="cls-1" d="M118.3,224.7v40.5s13.7-2.4,28.4.4,28.9-39.1,6.8-43.7c-20.2-4.2-22.1-3.9-35.2,2.8Z"/>
    <path id="Hip" class="cls-1" d="M69,272.4s23.1-1.3,30.9,3,14-23.3,8.7-28.8-22.4,0-36.4.8c0,0-1,16.3-3.1,24.9Z"/>
    <path id="Knee" class="cls-1" d="M98.1,433.4c1.1-16.2,5.3-32.3,5.3-32.3-18.4-13.1-36.1-3-36.1-3,0,0,.9,12.7-2.8,32.7,0,0,15.8,16,33.6,2.6Z"/>
    <path id="Shin" class="cls-1" d="M81.2,448.3c7-.2,13.9,10.9,10.4,22.3s-2.7,30.8-2.8,40.9-3.2,2.4-4.6,2.4-4.4.8-5.2-4.6-3.6-27.2-6-33.2-3.4-27.5,8.2-27.8Z"/>
    <path id="Calf" class="cls-1" d="M174.5,437.5c-23.1-10.6-34.2,2.4-34.2,2.4,0,0,.2,24.9,2.5,37.9s7,18.6,11.8,18.2,11.6.2,15.6-18.1,5.2-22.5,4.9-29.6-.6-10.8-.6-10.8Z"/>
    <path id="Ankle" class="cls-1" d="M97.3,526.4c-11.3-5.3-20.9,1.2-20.9,1.2,0,10.3-3.5,17.4-3.5,17.4,0,0,13-6.6,26,0,0,0-1.5-12.4-1.6-18.6Z"/>
    <path id="Sole" class="cls-1" d="M139,556.9s-2.9,11.4,17.9,10.4,13.1-9.3,11-15.3c-7.1,7.2-17.7,6.6-28.9,4.9Z"/>
    <path id="Hamstrings" class="cls-1" d="M142.8,326.6c.8-3.5,11.6-4.7,16.6,51.8s2.2,49.8-1.1,51.6-7-3.5-12.4-45.3c-3.5-27.4-5.1-49.7-3.1-58Z"/>
    <path id="Quadriceps" class="cls-1" d="M64.1,324.3c-.5,7,0,26.5,1.5,48.5s40.2,16.2,41.6,6.6,4.1-26.4,5-45.5c0,0-23.8-2.7-24.1-19.1s-22.4-13.7-23.9,9.4Z"/>
    <path id="Buttocks" class="cls-1" d="M118.5,314.1c6.6-4.1,31.6,22.5,45.2-4.5s-.4-40.3-17.4-42.4-25-.4-27.9,0v46.9Z"/>
    <path id="Groin" class="cls-1" d="M113,326.6s-14.6,1.6-19.8-17,4.8-23.6,9.9-24.8,13.6-.7,13.6-.7v29.7s-3.4-2.5-3.7,12.9Z"/>
  </g>
</svg>